<svg width="443" height="155" viewBox="0 0 443 155" fill="none" xmlns="http://www.w3.org/2000/svg">
<path d="M29.5508 73.74V82.76C29.5508 87.34 30.1808 91.68 31.4408 95.8C32.7008 99.92 34.7308 103.52 37.5308 106.61C40.3308 109.7 43.9108 112.16 48.2608 113.99C52.6108 115.82 57.8708 116.74 64.0508 116.74C70.0008 116.74 75.1208 115.82 79.4108 113.99C83.7008 112.16 87.2508 109.67 90.0508 106.52C92.8508 103.37 94.9108 99.77 96.2308 95.71C97.5408 91.65 98.2008 87.38 98.2008 82.92V58.89H77.4308V80.86C77.4308 86.12 76.3708 90.19 74.2608 93.05C72.1408 95.91 68.8508 97.34 64.3908 97.34C59.8108 97.34 56.5208 95.88 54.5208 92.96C53.0108 90.77 52.0708 87.88 51.7008 84.29H49.3808C41.4108 84.31 34.4608 82.44 29.5508 73.74Z" fill="#011E41"/>
<path d="M166.001 103.22C164.401 106.99 161.521 109.93 157.351 112.04C153.181 114.16 148.361 115.21 142.881 115.21C135.911 115.21 130.061 113.98 125.331 111.53C120.591 109.08 116.771 105.85 113.861 101.85C110.951 97.8601 108.831 93.2301 107.521 87.9801C106.211 82.7301 105.551 77.3601 105.551 71.8801C105.551 65.3701 106.521 59.41 108.461 53.99C110.401 48.57 113.021 43.95 116.341 40.12C119.651 36.3 123.531 33.33 127.991 31.22C132.441 29.11 137.241 28.05 142.371 28.05C152.871 28.05 160.751 32.27 166.001 40.72V30.28H188.261V115.39C188.261 121.78 187.171 127.4 185.011 132.26C182.841 137.11 179.871 141.17 176.101 144.42C172.331 147.67 167.881 150.16 162.741 151.87C157.601 153.58 152.121 154.44 146.301 154.44C140.481 154.44 135.051 153.61 130.031 151.96C125.001 150.3 120.701 147.96 117.101 144.94C113.501 141.91 110.681 138.23 108.621 133.89C106.561 129.55 105.541 124.64 105.541 119.16H126.261C126.261 124.3 127.941 128.26 131.311 131.06C134.681 133.86 139.161 135.26 144.751 135.26C150.691 135.26 155.711 133.63 159.821 130.38C163.931 127.13 165.981 122.7 165.981 117.11V103.22H166.001ZM147.681 97.74C153.161 97.74 157.701 95.66 161.291 91.49C164.891 87.32 166.681 81.6401 166.681 74.4501C166.681 56.4101 160.341 47.3901 147.671 47.3901C135.001 47.3901 128.661 55.95 128.661 73.08C128.661 80.62 130.461 86.61 134.051 91.06C137.661 95.52 142.201 97.74 147.681 97.74Z" fill="#011E41"/>
<path d="M239.47 116.75C232.62 116.75 226.51 115.66 221.15 113.5C215.78 111.33 211.24 108.31 207.54 104.42C203.83 100.54 201 95.8601 199.06 90.3801C197.12 84.9001 196.15 78.91 196.15 72.4C196.15 65.78 197.15 59.73 199.15 54.25C201.15 48.77 204.03 44.0901 207.8 40.2101C211.57 36.3301 216.1 33.33 221.41 31.22C226.72 29.11 232.74 28.05 239.48 28.05C246.1 28.05 252.04 29.11 257.29 31.22C262.54 33.33 267.02 36.3 270.73 40.12C274.44 43.95 277.29 48.6 279.29 54.08C281.29 59.56 282.29 65.67 282.29 72.4C282.29 79.14 281.29 85.2201 279.29 90.6401C277.29 96.0601 274.44 100.72 270.73 104.6C267.02 108.48 262.51 111.48 257.2 113.59C251.88 115.69 245.98 116.75 239.47 116.75ZM239.47 98.08C253.05 98.08 259.85 89.5201 259.85 72.3901C259.85 55.3801 253.06 46.87 239.47 46.87C225.88 46.87 219.09 55.3801 219.09 72.3901C219.09 89.5201 225.88 98.08 239.47 98.08Z" fill="#011E41"/>
<path d="M343.072 114.52C342.382 112.35 341.932 109.84 341.702 106.99C339.072 109.96 335.592 112.33 331.252 114.1C326.912 115.87 321.892 116.75 316.182 116.75C306.482 116.75 299.372 114.61 294.862 110.33C290.352 106.05 288.102 100.48 288.102 93.6301C288.102 87.5801 289.072 82.75 291.012 79.16C292.952 75.56 295.632 72.74 299.062 70.68C302.492 68.63 306.572 67.1101 311.302 66.1401C316.042 65.1701 321.202 64.29 326.802 63.49C332.392 62.69 336.162 61.6401 338.102 60.3201C340.042 59.0101 341.012 56.87 341.012 53.9C341.012 51.16 339.722 49.0201 337.162 47.4801C334.592 45.9401 331.142 45.1701 326.802 45.1701C321.662 45.1701 317.982 46.3101 315.752 48.6001C313.532 50.8801 312.132 53.91 311.552 57.68H290.832C290.942 53.34 291.662 49.35 292.972 45.69C294.282 42.04 296.402 38.9001 299.312 36.2701C302.222 33.6501 306.012 31.62 310.702 30.19C315.382 28.76 321.092 28.05 327.822 28.05C334.442 28.05 340.062 28.79 344.692 30.28C349.312 31.76 353.022 33.9 355.822 36.7C358.622 39.5 360.642 42.98 361.902 47.15C363.162 51.32 363.782 56.03 363.782 61.28V114.54H343.072V114.52ZM341.532 73.25C340.392 74.39 338.732 75.3 336.562 75.99C334.392 76.67 331.252 77.42 327.142 78.22C320.752 79.48 316.352 81.0701 313.952 83.0101C311.552 84.9501 310.352 87.75 310.352 91.4C310.352 97.68 313.952 100.82 321.142 100.82C323.992 100.82 326.652 100.34 329.102 99.36C331.552 98.39 333.662 97.0801 335.442 95.4201C337.212 93.7701 338.632 91.8201 339.722 89.6001C340.802 87.3701 341.352 85.01 341.352 82.49L341.532 73.25Z" fill="#011E41"/>
<path d="M421.331 59.04H442.051V83.01C442.051 87.46 441.391 91.72 440.081 95.77C438.771 99.82 436.711 103.42 433.921 106.56C431.121 109.7 427.581 112.18 423.301 114.01C419.021 115.83 413.911 116.75 407.971 116.75C401.811 116.75 396.551 115.84 392.221 114.01C387.881 112.18 384.311 109.73 381.521 106.64C378.721 103.56 376.701 99.96 375.441 95.85C374.181 91.74 373.561 87.4 373.561 82.84V7.5H395.481V30.28H442.061V46.03H395.481V80.62C395.481 85.99 396.481 90.12 398.481 93.04C400.481 95.95 403.761 97.41 408.331 97.41C412.781 97.41 416.061 95.98 418.181 93.13C420.291 90.28 421.351 86.22 421.351 80.97V59.04H421.331Z" fill="#011E41"/>
<path d="M61.3016 51.36C61.3016 51.36 61.2716 51.35 61.2516 51.34C61.1116 51.34 60.9816 51.36 60.8516 51.36H61.3016Z" fill="url(#paint0_linear)"/>
<path d="M29.3506 51.36H36.4706C37.4406 50.48 38.5506 49.6 39.7706 48.73C42.3406 50.39 45.3306 51.36 48.5106 51.36H51.7306H60.8406C60.9806 51.36 61.1206 51.34 61.2606 51.34C71.7606 51.11 80.2106 42.55 80.2106 32V28.98H51.7406H44.5706C43.5606 29.98 42.4506 30.98 41.2206 31.94C38.4206 30.06 35.1006 28.98 31.6206 28.98H29.3606H20.2506C20.1106 28.98 19.9806 29 19.8506 29C9.35062 29.22 0.890625 37.79 0.890625 48.35V51.37H29.3506V51.36Z" fill="url(#paint1_linear)"/>
<path d="M48.9998 40.79C50.7498 38.13 51.7299 34.97 51.7299 31.69V28.98V19.87C51.7299 19.73 51.7098 19.6 51.7098 19.47C51.4898 8.96002 42.9198 0.51001 32.3598 0.51001H29.3398V28.98V36.2C30.2598 37.12 31.1698 38.14 32.0698 39.25C30.3498 41.85 29.3398 44.89 29.3398 48.12V51.36V60.47C29.3398 60.61 29.3598 60.75 29.3598 60.89C29.5898 71.39 38.1498 79.84 48.6998 79.84H51.7198V51.37V44.25C50.8198 43.23 49.8998 42.07 48.9998 40.79Z" fill="url(#paint2_linear)"/>
<path d="M51.7098 19.46C51.5598 19.87 49.7798 24.3099 44.6098 28.9799C43.6398 29.8599 42.5298 30.74 41.3098 31.61C40.2998 32.32 39.2198 33.02 38.0298 33.69C35.5798 35.07 33.5598 36.99 32.0698 39.24C30.3498 41.84 29.3398 44.8799 29.3398 48.1099V51.35V60.4599C29.3398 60.5999 29.3598 60.74 29.3598 60.88C29.5098 60.57 31.8298 56 36.5098 51.35C37.5198 50.35 38.6298 49.35 39.8598 48.39C41.0998 47.42 42.4399 46.48 43.9099 45.63C45.9999 44.42 47.6998 42.73 48.9898 40.77C50.7398 38.11 51.7198 34.95 51.7198 31.67V28.96V19.85C51.7298 19.73 51.7098 19.6 51.7098 19.46Z" fill="url(#paint3_linear)"/>
<path d="M19.8301 29C20.2401 29.15 24.6801 30.93 29.3501 36.1C30.2301 37.07 31.1101 38.18 31.9801 39.4C32.6901 40.41 33.3901 41.49 34.0601 42.68C35.4401 45.13 37.3601 47.15 39.6101 48.64C42.2101 50.36 45.2501 51.37 48.4801 51.37H51.7201H60.8301C60.9701 51.37 61.1101 51.35 61.2501 51.35C60.9401 51.2 56.3701 48.88 51.7201 44.2C50.7201 43.19 49.7201 42.08 48.7601 40.85C47.7901 39.61 46.8501 38.27 46.0001 36.8C44.7901 34.71 43.1001 33.01 41.1401 31.72C38.4801 29.97 35.3201 28.99 32.0401 28.99H29.3301H20.2201C20.1001 28.98 19.9601 29 19.8301 29Z" fill="url(#paint4_linear)"/>
<defs>
<linearGradient id="paint0_linear" x1="60.8451" y1="51.3484" x2="61.3017" y2="51.3484" gradientUnits="userSpaceOnUse">
<stop stop-color="#FF13A7"/>
<stop offset="0.1869" stop-color="#E812CE"/>
<stop offset="0.383" stop-color="#D410F2"/>
<stop offset="0.4884" stop-color="#CC10FF"/>
<stop offset="0.6323" stop-color="#8B1BFE"/>
<stop offset="0.8095" stop-color="#4128FE"/>
<stop offset="0.9366" stop-color="#1230FD"/>
<stop offset="1" stop-color="#0033FD"/>
</linearGradient>
<linearGradient id="paint1_linear" x1="0.877525" y1="40.1678" x2="80.2053" y2="40.1678" gradientUnits="userSpaceOnUse">
<stop stop-color="#FF13A7"/>
<stop offset="0.1869" stop-color="#E812CE"/>
<stop offset="0.383" stop-color="#D410F2"/>
<stop offset="0.4884" stop-color="#CC10FF"/>
<stop offset="0.6323" stop-color="#8B1BFE"/>
<stop offset="0.8095" stop-color="#4128FE"/>
<stop offset="0.9366" stop-color="#1230FD"/>
<stop offset="1" stop-color="#0033FD"/>
</linearGradient>
<linearGradient id="paint2_linear" x1="40.5407" y1="0.50401" x2="40.5407" y2="79.8319" gradientUnits="userSpaceOnUse">
<stop stop-color="#FF13A7"/>
<stop offset="0.1869" stop-color="#E812CE"/>
<stop offset="0.383" stop-color="#D410F2"/>
<stop offset="0.4884" stop-color="#CC10FF"/>
<stop offset="0.6323" stop-color="#8B1BFE"/>
<stop offset="0.8095" stop-color="#4128FE"/>
<stop offset="0.9366" stop-color="#1230FD"/>
<stop offset="1" stop-color="#0033FD"/>
</linearGradient>
<linearGradient id="paint3_linear" x1="29.3497" y1="40.1732" x2="51.7314" y2="40.1732" gradientUnits="userSpaceOnUse">
<stop stop-color="#FF13A7"/>
<stop offset="0.1869" stop-color="#E812CE"/>
<stop offset="0.383" stop-color="#D410F2"/>
<stop offset="0.4884" stop-color="#CC10FF"/>
<stop offset="0.6323" stop-color="#8B1BFE"/>
<stop offset="0.8095" stop-color="#4128FE"/>
<stop offset="0.9366" stop-color="#1230FD"/>
<stop offset="1" stop-color="#0033FD"/>
</linearGradient>
<linearGradient id="paint4_linear" x1="19.829" y1="40.1732" x2="61.2526" y2="40.1732" gradientUnits="userSpaceOnUse">
<stop stop-color="#0033FD"/>
<stop offset="0.0634" stop-color="#1230FD"/>
<stop offset="0.1905" stop-color="#4128FE"/>
<stop offset="0.3677" stop-color="#8B1BFE"/>
<stop offset="0.5116" stop-color="#CC10FF"/>
<stop offset="0.617" stop-color="#D410F2"/>
<stop offset="0.8131" stop-color="#E812CE"/>
<stop offset="1" stop-color="#FF13A7"/>
</linearGradient>
</defs>
</svg>
